<?xml version="1.0" encoding="UTF-8" standalone="no"?>
<!-- Uploaded to: SVG Repo, www.svgrepo.com, Generator: SVG Repo Mixer Tools -->
<svg width="800px" height="800px" viewBox="-2 0 64 64" version="1.1" xmlns="http://www.w3.org/2000/svg" xmlns:xlink="http://www.w3.org/1999/xlink" xmlns:sketch="http://www.bohemiancoding.com/sketch/ns">
    
    <title>Newspaper</title>
    <desc>Created with Sketch.</desc>
    <defs>
</defs>
    <g id="Page-1" stroke="none" stroke-width="1" fill="none" fill-rule="evenodd" sketch:type="MSPage">
        <g id="Newspaper" sketch:type="MSLayerGroup" transform="translate(1.000000, 2.000000)" stroke="#6B6C6E" stroke-width="2">
            <path d="M58,54.8 C58,60.9 53,60.9 51.9,60.9 L6.2,60.9 C5.1,60.9 11.1,60.9 11.1,54.8 L11.1,1.9 C11.1,0.8 12,-0.1 13.1,-0.1 L56,-0.1 C57.1,-0.1 58,0.8 58,1.9 C58,1.9 58,48.7 58,54.8 L58,54.8 Z" id="Shape" sketch:type="MSShapeGroup">
</path>
            <path d="M7.1,60.9 L4.1,60.9 C3,60.9 0,58.9 0,53.8 L0,29 C0,27.9 0.9,27 2,27 L11,27" id="Shape" sketch:type="MSShapeGroup">
</path>
            <path d="M22,14 L46,14" id="Shape" sketch:type="MSShapeGroup">
</path>
            <path d="M18,43 L30,43" id="Shape" sketch:type="MSShapeGroup">
</path>
            <path d="M18,55 L51.8,55" id="Shape" sketch:type="MSShapeGroup">
</path>
            <path d="M18,49.9 L51.8,49.9" id="Shape" sketch:type="MSShapeGroup">
</path>
            <path d="M36,25 L48.8,25" id="Shape" sketch:type="MSShapeGroup">
</path>
            <path d="M36,35 L51.8,35" id="Shape" sketch:type="MSShapeGroup">
</path>
            <path d="M36,29.9 L51.8,29.9" id="Shape" sketch:type="MSShapeGroup">
</path>
            <rect id="Rectangle-path" sketch:type="MSShapeGroup" x="37" y="40" width="14" height="4.1">
</rect>
            <rect id="Rectangle-path" sketch:type="MSShapeGroup" x="19" y="23" width="10" height="11">
</rect>
            <path d="M18,9.1 L49.8,9.1" id="Shape" sketch:type="MSShapeGroup">
</path>
        </g>
    </g>
</svg>